<svg width="33" height="32" viewBox="0 0 33 32" fill="none" xmlns="http://www.w3.org/2000/svg">
<path d="M29.4399 15.2554C29.2039 14.9047 23.5879 6.66602 16.3333 6.66602C9.07861 6.66602 3.46261 14.9047 3.22661 15.2554L2.73328 15.9993L3.23194 16.7433C3.46261 17.094 9.07861 25.3327 16.3333 25.3327C23.5879 25.3327 29.2039 17.094 29.4399 16.7433L29.9333 15.9993L29.4399 15.2554ZM16.3333 22.666C11.6253 22.666 7.44794 17.8793 5.98928 15.9993C7.44794 14.1193 11.6253 9.33268 16.3333 9.33268C21.0413 9.33268 25.2186 14.1193 26.6773 15.9993C25.2186 17.8793 21.0413 22.666 16.3333 22.666Z" fill="#9A9AB0"/>
<path d="M16.3333 10.666C15.2785 10.666 14.2473 10.9788 13.3703 11.5648C12.4932 12.1509 11.8096 12.9838 11.4059 13.9584C11.0023 14.9329 10.8967 16.0053 11.1025 17.0398C11.3082 18.0744 11.8162 19.0247 12.5621 19.7706C13.3079 20.5165 14.2583 21.0244 15.2928 21.2302C16.3274 21.436 17.3997 21.3304 18.3743 20.9267C19.3488 20.523 20.1818 19.8395 20.7678 18.9624C21.3538 18.0853 21.6666 17.0542 21.6666 15.9993C21.6666 14.5849 21.1047 13.2283 20.1045 12.2281C19.1043 11.2279 17.7478 10.666 16.3333 10.666ZM16.3333 18.666C15.8059 18.666 15.2903 18.5096 14.8518 18.2166C14.4133 17.9236 14.0715 17.5071 13.8696 17.0198C13.6678 16.5326 13.615 15.9964 13.7179 15.4791C13.8208 14.9618 14.0747 14.4867 14.4477 14.1137C14.8206 13.7408 15.2958 13.4868 15.8131 13.3839C16.3303 13.281 16.8665 13.3338 17.3538 13.5357C17.8411 13.7375 18.2575 14.0793 18.5506 14.5178C18.8436 14.9564 19 15.4719 19 15.9993C19 16.7066 18.719 17.3849 18.2189 17.885C17.7188 18.3851 17.0406 18.666 16.3333 18.666Z" fill="#9A9AB0"/>
</svg>
