<svg width="33" height="32" viewBox="0 0 33 32" fill="none" xmlns="http://www.w3.org/2000/svg">
<path d="M16.3333 2.66602C13.6962 2.66602 11.1184 3.448 8.92572 4.91309C6.73307 6.37817 5.0241 8.46055 4.01493 10.8969C3.00576 13.3333 2.74172 16.0141 3.25619 18.6006C3.77066 21.187 5.04053 23.5627 6.90523 25.4274C8.76993 27.2921 11.1457 28.562 13.7321 29.0765C16.3185 29.591 18.9994 29.3269 21.4358 28.3177C23.8721 27.3086 25.9545 25.5996 27.4196 23.407C28.8847 21.2143 29.6667 18.6364 29.6667 15.9993C29.6628 12.4643 28.2568 9.07519 25.7571 6.57555C23.2575 4.0759 19.8684 2.6699 16.3333 2.66602ZM16.3333 26.666C14.2237 26.666 12.1614 26.0404 10.4072 24.8684C8.65312 23.6963 7.28594 22.0304 6.47861 20.0813C5.67127 18.1322 5.46004 15.9875 5.87161 13.9184C6.28319 11.8493 7.29909 9.94864 8.79085 8.45688C10.2826 6.96512 12.1832 5.94922 14.2524 5.53764C16.3215 5.12606 18.4662 5.3373 20.4153 6.14463C22.3644 6.95197 24.0303 8.31914 25.2023 10.0733C26.3744 11.8274 27 13.8897 27 15.9993C26.9968 18.8274 25.872 21.5386 23.8723 23.5383C21.8726 25.538 19.1613 26.6628 16.3333 26.666Z" fill="#9A9AB0"/>
<path d="M17.6667 7.99902H15V16.551L20.724 22.275L22.6093 20.3897L17.6667 15.447V7.99902Z" fill="#9A9AB0"/>
</svg>
